<svg width="18" height="18" viewBox="0 0 18 18" fill="none" xmlns="http://www.w3.org/2000/svg">
<path d="M11.5258 6.63578L11.5259 6.63574C12.2281 5.93353 12.5789 5.08679 12.5789 4.09435C12.5789 3.1023 12.2282 2.25546 11.5258 1.55293C10.8234 0.850761 9.97647 0.5 8.98429 0.5C7.99181 0.5 7.14503 0.850765 6.44283 1.553C5.74057 2.25528 5.38968 3.10218 5.38968 4.09435C5.38968 5.08674 5.74054 5.93361 6.44289 6.63586L11.5258 6.63578ZM11.5258 6.63578C10.8236 7.33812 9.97661 7.68892 8.98429 7.68892M11.5258 6.63578L8.98429 7.68892M2.91202 11.0704C2.81322 11.3792 2.72943 11.7209 2.66387 12.0862L2.91202 11.0704ZM2.91202 11.0704C3.01111 10.7609 3.14637 10.4536 3.31451 10.1576L3.31453 10.1576C3.48449 9.8583 3.68073 9.60442 3.89465 9.39959L2.91202 11.0704ZM2.83838 16.2119C3.38778 16.7348 4.11473 17 4.99875 17H13.1843C14.0683 17 14.795 16.7349 15.3446 16.212C15.901 15.6825 16.1831 14.964 16.1831 14.0762M2.83838 16.2119L3.18321 15.8499C3.18316 15.8498 3.18311 15.8498 3.18306 15.8497M2.83838 16.2119L3.18306 15.8497M2.83838 16.2119L2.53278 13.107C2.51072 13.4295 2.49979 13.7527 2.5 14.076L2.5 14.0763C2.5 14.8499 2.74154 15.4291 3.18306 15.8497M3.18306 15.8497C3.62425 16.2696 4.22031 16.5 4.99875 16.5H13.1843C13.9628 16.5 14.5586 16.2697 14.9999 15.8498L14.9999 15.8497C15.4414 15.4296 15.683 14.8505 15.6831 14.0764L16.1831 14.0762M16.1831 14.0762H15.6831M16.1831 14.0762C16.1829 13.7337 16.1714 13.3958 16.1487 13.0721C16.1257 12.7408 16.0793 12.3795 16.0109 11.9979L15.5188 12.0861C15.5188 12.0862 15.5188 12.0862 15.5188 12.0862M15.6831 14.0762L14.8682 10.1578C15.0364 10.4537 15.1716 10.7611 15.2705 11.0703L15.2706 11.0704C15.3695 11.3791 15.4532 11.7209 15.5188 12.0862M15.6831 14.0762C15.6829 13.7446 15.6718 13.4185 15.6499 13.1071L15.6499 13.1067C15.6284 12.7962 15.5845 12.453 15.5188 12.0862M15.6831 14.0762L15.5188 12.0862M14.2877 9.39956L14.2876 9.39946C14.0745 9.19558 13.8075 9.02561 13.4873 8.8987C13.179 8.77681 12.8291 8.71177 12.4439 8.71177C12.4435 8.71177 12.443 8.71176 12.4425 8.71175C12.4267 8.7115 12.3622 8.71048 12.0512 8.913C11.8195 9.06386 11.5872 9.21365 11.3541 9.36238L11.3538 9.36256C11.0825 9.53545 10.7375 9.68411 10.3418 9.81191M14.2877 9.39956L10.3418 9.81191M14.2877 9.39956C14.5016 9.60402 14.6977 9.85798 14.8681 10.1577L14.2877 9.39956ZM10.3418 9.81191C9.93107 9.94479 9.51017 10.0134 9.09114 10.0134C8.67202 10.0134 8.25118 9.94475 7.8401 9.81188M10.3418 9.81191L7.8401 9.81188M7.8401 9.81188C7.44497 9.6842 7.09982 9.53556 6.82864 9.36257L6.82831 9.36236C6.56939 9.19691 6.3347 9.04565 6.13072 8.91275L6.13064 8.9127C5.82015 8.71032 5.75559 8.71134 5.73979 8.71159C5.7393 8.71159 5.73885 8.7116 5.73845 8.7116C5.35299 8.7116 5.00327 8.77679 4.69499 8.89891L4.69489 8.89895C4.37521 9.02551 4.10809 9.19539 3.89476 9.39948L7.8401 9.81188ZM8.98429 7.68892C7.99228 7.68892 7.14536 7.33807 6.44292 6.63589L8.98429 7.68892ZM2.53279 13.1068C2.55433 12.7956 2.59819 12.4523 2.66387 12.0862L2.53279 13.1068Z" stroke="#707070"/>
</svg>
